<svg width="232" height="54" viewBox="0 0 232 54" fill="none" xmlns="http://www.w3.org/2000/svg">
<path d="M0 49.957H10.0712V1.43359H0V49.957ZM75.1272 49.957H109.298V41.2366H85.2695V1.43359H75.1272V49.957Z" fill="#272D67"/>
<path d="M128.982 1.88867H126.738V12.6787H128.982V1.88867Z" fill="#272D67"/>
<path d="M140.373 12.6708H138.122L133.714 5.00877V12.6708H131.613V1.88867H133.975L138.272 9.4164V1.88867H140.373V12.6708Z" fill="#272D67"/>
<path d="M146.963 11.1152C147.492 11.1152 147.926 11.0599 148.258 10.9414C148.89 10.7203 149.206 10.3016 149.206 9.6934C149.206 9.33794 149.048 9.06148 148.74 8.864C148.432 8.67443 147.934 8.50855 147.271 8.35847L146.125 8.0978C145.004 7.84503 144.23 7.56857 143.795 7.26841C143.069 6.77077 142.705 5.99667 142.705 4.93821C142.705 3.97453 143.053 3.16884 143.756 2.52902C144.459 1.8892 145.494 1.57324 146.852 1.57324C147.99 1.57324 148.961 1.8734 149.759 2.47373C150.565 3.07405 150.983 3.95084 151.023 5.09619H148.859C148.819 4.44847 148.535 3.98243 148.005 3.71387C147.65 3.53219 147.216 3.4453 146.694 3.4453C146.118 3.4453 145.652 3.56379 145.304 3.80076C144.956 4.03772 144.783 4.36158 144.783 4.78023C144.783 5.16728 144.956 5.45164 145.296 5.64122C145.517 5.7676 145.983 5.91768 146.702 6.09146L148.558 6.5417C149.372 6.73918 149.988 6.99984 150.399 7.3237C151.047 7.82924 151.362 8.56384 151.362 9.52752C151.362 10.4912 150.983 11.3285 150.233 11.9841C149.483 12.6318 148.416 12.9636 147.042 12.9636C145.667 12.9636 144.53 12.6397 143.724 11.9999C142.918 11.3601 142.516 10.4754 142.516 9.35374H144.664C144.735 9.84348 144.87 10.2147 145.067 10.4596C145.43 10.9019 146.062 11.1231 146.947 11.1231" fill="#272D67"/>
<path d="M161.361 1.88867V3.80023H158.138V12.6708H155.864V3.80023H152.625V1.88867H161.361Z" fill="#272D67"/>
<path d="M165.314 1.88867H163.07V12.6787H165.314V1.88867Z" fill="#272D67"/>
<path d="M175.791 1.88867V3.80023H172.568V12.6708H170.293V3.80023H167.055V1.88867H175.791Z" fill="#272D67"/>
<path d="M183.976 8.51592V1.88867H186.267V8.51592C186.267 9.66127 186.085 10.5539 185.73 11.1937C185.066 12.3627 183.802 12.9472 181.93 12.9472C180.058 12.9472 178.794 12.3627 178.123 11.1937C177.768 10.5539 177.586 9.66127 177.586 8.51592V1.88867H179.877V8.51592C179.877 9.25842 179.964 9.79555 180.137 10.1431C180.414 10.7513 181.006 11.0515 181.922 11.0515C182.839 11.0515 183.431 10.7513 183.7 10.1431C183.874 9.80345 183.96 9.25842 183.96 8.51592" fill="#272D67"/>
<path d="M196.764 1.88867V3.80023H193.533V12.6708H191.266V3.80023H188.027V1.88867H196.764Z" fill="#272D67"/>
<path d="M206.046 7.96299H200.801V10.7355H206.773V12.6787H198.598V1.88867H206.512V3.80023H200.801V6.09093H206.046V7.96299Z" fill="#272D67"/>
<path d="M134.564 22.5061H129.153V24.9864H133.893V26.8584H129.153V31.3846H126.91V20.6104H134.564V22.5061Z" fill="#272D67"/>
<path d="M143.221 28.7845C143.742 28.1289 144.003 27.189 144.003 25.9725C144.003 24.7561 143.742 23.824 143.213 23.1684C142.684 22.5049 141.981 22.1731 141.088 22.1731C140.195 22.1731 139.484 22.5049 138.947 23.1605C138.418 23.8161 138.15 24.7561 138.15 25.9725C138.15 27.189 138.418 28.121 138.947 28.7845C139.477 29.4402 140.195 29.7719 141.088 29.7719C141.981 29.7719 142.691 29.4402 143.221 28.7845ZM141.088 31.6835C139.548 31.6835 138.371 31.2648 137.549 30.4275C136.459 29.4007 135.906 27.9157 135.906 25.9804C135.906 24.0452 136.451 22.5207 137.549 21.5333C138.363 20.696 139.54 20.2773 141.088 20.2773C142.636 20.2773 143.805 20.696 144.619 21.5333C145.709 22.5207 146.254 24.0057 146.254 25.9804C146.254 27.9552 145.709 29.4007 144.619 30.4275C143.805 31.2648 142.628 31.6835 141.088 31.6835Z" fill="#272D67"/>
<path d="M154.436 25.1909C154.886 24.9855 155.107 24.5826 155.107 23.9744C155.107 23.3188 154.894 22.8844 154.459 22.6553C154.215 22.5289 153.851 22.4657 153.361 22.4657H150.739V25.3646H153.29C153.796 25.3646 154.175 25.3094 154.436 25.1909ZM153.069 27.1577H150.739V31.3916H148.535V20.6016H153.827C154.586 20.6174 155.162 20.7042 155.573 20.878C155.984 21.0518 156.324 21.2967 156.608 21.6284C156.845 21.9049 157.027 22.2051 157.161 22.5368C157.295 22.8686 157.366 23.2477 157.366 23.6743C157.366 24.1877 157.24 24.6932 156.979 25.183C156.719 25.6806 156.292 26.0282 155.7 26.2335C156.197 26.431 156.553 26.7154 156.758 27.0866C156.963 27.4579 157.066 28.0187 157.066 28.777V29.5037C157.066 29.9935 157.082 30.3331 157.121 30.5069C157.177 30.7833 157.319 30.9887 157.532 31.123V31.3916H155.052C154.981 31.1546 154.933 30.9571 154.91 30.8149C154.854 30.5148 154.823 30.2067 154.815 29.8829L154.799 28.8797C154.791 28.1925 154.665 27.7343 154.42 27.5053C154.175 27.2762 153.725 27.1577 153.061 27.1577" fill="#272D67"/>
<path d="M170.66 29.4964L169.57 28.4538L170.731 27.2373L171.821 28.28C171.995 27.9245 172.113 27.6244 172.177 27.3558C172.287 26.9609 172.335 26.5027 172.335 25.9735C172.335 24.7649 172.09 23.825 171.592 23.1693C171.094 22.5058 170.376 22.1741 169.42 22.1741C168.527 22.1741 167.816 22.49 167.279 23.1299C166.75 23.7618 166.481 24.7097 166.481 25.9735C166.481 27.4506 166.861 28.5091 167.619 29.1489C168.109 29.5596 168.701 29.7729 169.388 29.7729C169.649 29.7729 169.894 29.7413 170.139 29.6781C170.273 29.6465 170.439 29.5833 170.644 29.4964M171.142 31.4475C170.66 31.6055 170.083 31.6924 169.404 31.6924C167.998 31.6924 166.837 31.2737 165.921 30.4364C164.807 29.4253 164.254 27.9403 164.254 25.9893C164.254 24.0382 164.823 22.5295 165.968 21.5185C166.9 20.6891 168.061 20.2783 169.444 20.2783C170.826 20.2783 172.011 20.7128 172.959 21.5896C174.049 22.6006 174.602 24.0145 174.602 25.8313C174.602 26.795 174.483 27.6007 174.246 28.2484C174.057 28.8724 173.772 29.3858 173.401 29.7966L174.649 30.9577L173.472 32.19L172.169 30.9577C171.774 31.1947 171.434 31.3685 171.142 31.4633" fill="#272D67"/>
<path d="M183.199 27.2288V20.6016H185.49V27.2288C185.49 28.3742 185.308 29.2667 184.952 29.9066C184.289 31.0756 183.025 31.6601 181.153 31.6601C179.281 31.6601 178.017 31.0756 177.346 29.9066C176.99 29.2667 176.809 28.3742 176.809 27.2288V20.6016H179.099V27.2288C179.099 27.9713 179.186 28.5084 179.36 28.856C179.636 29.4642 180.229 29.7644 181.145 29.7644C182.061 29.7644 182.654 29.4642 182.922 28.856C183.096 28.5163 183.183 27.9713 183.183 27.2288" fill="#272D67"/>
<path d="M193.309 27.3069L191.966 23.0652L190.576 27.3069H193.309ZM193.933 29.1632H189.96L189.209 31.3828H186.855L190.702 20.5928H193.246L197.069 31.3828H194.62L193.925 29.1632H193.933Z" fill="#272D67"/>
<path d="M198.895 20.5928H201.146V29.4475H206.493V31.3828H198.895V20.5928Z" fill="#272D67"/>
<path d="M210.568 20.5928H208.324V31.3828H210.568V20.5928Z" fill="#272D67"/>
<path d="M221.029 20.5928V22.5043H217.806V31.3828H215.532V22.5043H212.293V20.5928H221.029Z" fill="#272D67"/>
<path d="M232 20.5928L228.398 27.3306V31.3828H226.138V27.3306L222.41 20.5928H225.064L227.3 25.2927L229.448 20.5928H232Z" fill="#272D67"/>
<path d="M126.91 39.3096H129.169V48.1564H134.509V50.0996H126.91V39.3096Z" fill="#272D67"/>
<path d="M143.898 45.3839H138.661V48.1564H144.632V50.0996H136.457V39.3096H144.372V41.2211H138.661V43.5118H143.898V45.3839Z" fill="#272D67"/>
<path d="M152.723 46.0237L151.38 41.782L149.99 46.0237H152.723ZM153.355 47.88H149.382L148.631 50.0996H146.277L150.124 39.3096H152.668L156.491 50.0996H154.042L153.347 47.88H153.355Z" fill="#272D67"/>
<path d="M164.628 42.0584C164.28 41.4739 163.593 41.1816 162.574 41.1816H160.497V48.2196H162.574C163.64 48.2196 164.383 47.6983 164.802 46.6477C165.031 46.0711 165.149 45.3839 165.149 44.594C165.149 43.496 164.975 42.6508 164.636 42.0584M162.953 50.0996H158.309V39.3096H162.953C163.625 39.3175 164.178 39.3965 164.62 39.5465C165.378 39.7993 165.986 40.2496 166.46 40.9131C166.832 41.4502 167.092 42.0347 167.227 42.6587C167.361 43.2828 167.432 43.8752 167.432 44.4439C167.432 45.8815 167.148 47.0901 166.571 48.0932C165.789 49.4361 164.588 50.1075 162.953 50.1075" fill="#272D67"/>
<path d="M177.117 45.3839H171.88V48.1564H177.851V50.0996H169.676V39.3096H177.591V41.2211H171.88V43.5118H177.117V45.3839Z" fill="#272D67"/>
<path d="M185.979 43.9058C186.429 43.7004 186.65 43.2976 186.65 42.6894C186.65 42.0337 186.437 41.5993 186.002 41.3702C185.758 41.2438 185.394 41.1807 184.904 41.1807H182.282V44.0796H184.833C185.339 44.0796 185.718 44.0243 185.979 43.9058ZM184.604 45.8648H182.274V50.0986H180.07V39.3086H185.363C186.121 39.3244 186.698 39.4113 187.108 39.5851C187.519 39.7588 187.859 40.0037 188.143 40.3355C188.38 40.6119 188.562 40.9121 188.696 41.2438C188.83 41.5756 188.901 41.9548 188.901 42.3813C188.901 42.8947 188.775 43.4003 188.514 43.89C188.254 44.3876 187.827 44.7352 187.235 44.9406C187.732 45.138 188.088 45.4224 188.293 45.7937C188.499 46.1649 188.601 46.7257 188.601 47.484V48.2107C188.601 48.7005 188.617 49.0401 188.657 49.2139C188.712 49.4904 188.854 49.6958 189.067 49.83V50.0986H186.587C186.516 49.8616 186.468 49.6642 186.445 49.522C186.389 49.2218 186.358 48.9138 186.35 48.5899L186.334 47.5867C186.326 46.8995 186.2 46.4414 185.955 46.2123C185.71 45.9832 185.26 45.8648 184.596 45.8648" fill="#272D67"/>
<path d="M195.248 48.5332C195.777 48.5332 196.212 48.4779 196.543 48.3594C197.175 48.1382 197.491 47.7196 197.491 47.1114C197.491 46.7559 197.333 46.4794 197.025 46.282C196.717 46.0924 196.219 45.9265 195.556 45.7764L194.411 45.5158C193.289 45.263 192.515 44.9865 192.08 44.6864C191.354 44.1887 190.99 43.4146 190.99 42.3562C190.99 41.3925 191.338 40.5868 192.041 39.947C192.744 39.3072 193.779 38.9912 195.137 38.9912C196.275 38.9912 197.246 39.2914 198.044 39.8917C198.85 40.492 199.268 41.3688 199.308 42.5142H197.144C197.104 41.8664 196.82 41.4083 196.291 41.1318C195.935 40.9502 195.501 40.8633 194.979 40.8633C194.403 40.8633 193.937 40.9818 193.589 41.2187C193.242 41.4557 193.068 41.7795 193.068 42.1982C193.068 42.5852 193.242 42.8696 193.581 43.0592C193.802 43.1856 194.268 43.3357 194.987 43.5094L196.843 43.9597C197.657 44.1571 198.273 44.4178 198.684 44.7417C199.332 45.2472 199.648 45.9818 199.648 46.9455C199.648 47.9092 199.268 48.7465 198.518 49.4021C197.768 50.0498 196.701 50.3815 195.327 50.3815C193.952 50.3815 192.815 50.0577 192.009 49.4179C191.204 48.778 190.801 47.8934 190.801 46.7717H192.949C193.02 47.2614 193.155 47.6327 193.352 47.8776C193.716 48.3199 194.347 48.5411 195.232 48.5411" fill="#272D67"/>
<path d="M208.301 50.0996V45.2812H204.083V50.0996H201.855V39.3096H204.083V43.4249H208.301V39.3096H210.544V50.0996H208.301Z" fill="#272D67"/>
<path d="M215.384 39.3096H213.141V50.0996H215.384V39.3096Z" fill="#272D67"/>
<path d="M223.643 43.97C223.935 43.7093 224.086 43.2986 224.086 42.7377C224.086 42.1769 223.935 41.7741 223.643 41.5371C223.351 41.3001 222.932 41.1816 222.403 41.1816H220.302V44.357H222.403C222.932 44.357 223.351 44.2306 223.651 43.97M222.593 46.2212H220.302V50.0996H218.059V39.3096H222.758C223.841 39.3096 224.702 39.586 225.349 40.1469C225.997 40.6998 226.313 41.5608 226.313 42.7298C226.313 44.0016 225.989 44.902 225.349 45.4313C224.702 45.9605 223.785 46.2212 222.593 46.2212Z" fill="#272D67"/>
<path d="M43.1314 8.86266C33.9212 8.86266 26.433 16.3509 26.433 25.5611C26.433 34.7713 33.9212 42.2595 43.1314 42.2595C52.3416 42.2595 59.8299 34.7713 59.8299 25.5611C59.8299 16.3509 52.3416 8.86266 43.1314 8.86266ZM43.1314 51.1143C29.0396 51.1143 17.5703 39.6529 17.5703 25.5532C17.5703 11.4535 29.0317 0 43.1314 0C57.2311 0 68.6925 11.4693 68.6925 25.5611C68.6925 39.6529 57.2232 51.1222 43.1314 51.1222" fill="#F05152"/>
<path d="M68.6846 25.5611C68.6846 11.4693 57.2232 0 43.1314 0C29.0396 0 17.5703 11.4693 17.5703 25.5611H26.433C26.433 16.3588 33.9212 8.86266 43.1314 8.86266C52.3416 8.86266 59.8299 16.3509 59.8299 25.5611C59.8299 30.6165 57.5629 35.1426 54.0083 38.2074C52.7919 36.6829 51.8124 34.9372 51.1805 33.0098L42.7681 35.7824C43.5106 38.0336 44.5611 40.1189 45.8329 42.0226C44.9561 42.1648 44.0556 42.2596 43.1393 42.2596V51.1222C46.6386 51.1222 49.9798 50.4113 53.0209 49.1317C57.0889 51.8015 61.9231 53.326 67.0416 53.326V44.4634C65.059 44.4634 63.1474 44.1079 61.3544 43.4602C65.8884 38.8472 68.6925 32.528 68.6925 25.5611" fill="#F05152"/>
</svg>
