<svg width="108" height="25" viewBox="0 0 108 25" fill="none" xmlns="http://www.w3.org/2000/svg">
<path d="M0 23.0506H4.6473V0.659668H0V23.0506ZM34.6671 23.0506H50.4351V19.0265H39.3472V0.659668H34.6671V23.0506Z" fill="white"/>
<path d="M59.5171 0.870605H58.4819V5.8496H59.5171V0.870605Z" fill="white"/>
<path d="M64.7756 5.84595H63.7368L61.703 2.31036V5.84595H60.7334V0.870605H61.8232L63.8061 4.34424V0.870605H64.7756V5.84595Z" fill="white"/>
<path d="M67.8153 5.12819C68.0595 5.12819 68.26 5.10267 68.4131 5.048C68.7047 4.94594 68.8505 4.75276 68.8505 4.4721C68.8505 4.30808 68.7776 4.1805 68.6354 4.08938C68.4932 4.0019 68.2636 3.92536 67.9574 3.8561L67.4289 3.73582C66.9113 3.61918 66.5541 3.49161 66.3537 3.3531C66.0183 3.12347 65.8507 2.76627 65.8507 2.27784C65.8507 1.83316 66.011 1.46138 66.3354 1.16614C66.6598 0.870895 67.1373 0.725098 67.7643 0.725098C68.2891 0.725098 68.7375 0.863606 69.1056 1.14062C69.4774 1.41764 69.6706 1.82223 69.6888 2.35074H68.6901C68.6718 2.05186 68.5406 1.83681 68.2964 1.71288C68.1324 1.62904 67.9319 1.58895 67.6914 1.58895C67.4253 1.58895 67.2102 1.64362 67.0498 1.75297C66.8895 1.86232 66.8093 2.01176 66.8093 2.20494C66.8093 2.38355 66.8895 2.51476 67.0462 2.60224C67.1483 2.66056 67.3633 2.72982 67.695 2.81001L68.5516 3.01777C68.927 3.10889 69.2113 3.22917 69.4008 3.37862C69.6997 3.61189 69.8455 3.95087 69.8455 4.39556C69.8455 4.84024 69.6706 5.2266 69.3243 5.52913C68.978 5.82802 68.486 5.98111 67.8517 5.98111C67.2175 5.98111 66.6926 5.83166 66.3209 5.53642C65.9491 5.24118 65.7632 4.83295 65.7632 4.31537H66.7546C66.7874 4.54135 66.8494 4.71267 66.9405 4.82566C67.1082 5.02978 67.3998 5.13183 67.808 5.13183" fill="white"/>
<path d="M74.459 0.870605V1.75268H72.9719V5.84595H71.9222V1.75268H70.4277V0.870605H74.459Z" fill="white"/>
<path d="M76.2832 0.870605H75.248V5.8496H76.2832V0.870605Z" fill="white"/>
<path d="M81.1177 0.870605V1.75268H79.6306V5.84595H78.5808V1.75268H77.0864V0.870605H81.1177Z" fill="white"/>
<path d="M84.895 3.92871V0.870605H85.9521V3.92871C85.9521 4.45723 85.8682 4.86911 85.7042 5.16435C85.3981 5.7038 84.8149 5.97353 83.951 5.97353C83.0872 5.97353 82.504 5.7038 82.1941 5.16435C82.0301 4.86911 81.9463 4.45723 81.9463 3.92871V0.870605H83.0033V3.92871C83.0033 4.27134 83.0434 4.51919 83.1236 4.67957C83.2512 4.96023 83.5245 5.09874 83.9474 5.09874C84.3702 5.09874 84.6435 4.96023 84.7675 4.67957C84.8477 4.52284 84.8878 4.27134 84.8878 3.92871" fill="white"/>
<path d="M90.796 0.870605V1.75268H89.3052V5.84595H88.2591V1.75268H86.7646V0.870605H90.796Z" fill="white"/>
<path d="M95.0778 3.67357H92.6576V4.95294H95.4131V5.8496H91.6406V0.870605H95.2929V1.75268H92.6576V2.80972H95.0778V3.67357Z" fill="white"/>
<path d="M62.094 10.3841H59.5972V11.5286H61.7841V12.3924H59.5972V14.481H58.562V9.50928H62.094V10.3841Z" fill="white"/>
<path d="M66.0876 13.282C66.3282 12.9795 66.4485 12.5458 66.4485 11.9845C66.4485 11.4231 66.3282 10.993 66.084 10.6905C65.8398 10.3843 65.5154 10.2312 65.1035 10.2312C64.6916 10.2312 64.3636 10.3843 64.1157 10.6868C63.8715 10.9894 63.7476 11.4231 63.7476 11.9845C63.7476 12.5458 63.8715 12.9759 64.1157 13.282C64.3599 13.5846 64.6916 13.7377 65.1035 13.7377C65.5154 13.7377 65.8434 13.5846 66.0876 13.282ZM65.1035 14.6197C64.3927 14.6197 63.8496 14.4266 63.4706 14.0402C62.9675 13.5664 62.7124 12.8811 62.7124 11.9881C62.7124 11.0951 62.9639 10.3916 63.4706 9.93599C63.846 9.54963 64.3891 9.35645 65.1035 9.35645C65.8179 9.35645 66.3573 9.54963 66.7328 9.93599C67.2358 10.3916 67.4873 11.0769 67.4873 11.9881C67.4873 12.8993 67.2358 13.5664 66.7328 14.0402C66.3573 14.4266 65.8142 14.6197 65.1035 14.6197Z" fill="white"/>
<path d="M71.2623 11.6241C71.4701 11.5293 71.5721 11.3434 71.5721 11.0627C71.5721 10.7602 71.4737 10.5597 71.2733 10.454C71.1603 10.3957 70.9926 10.3666 70.7666 10.3666H69.5565V11.7042H70.7338C70.9671 11.7042 71.142 11.6787 71.2623 11.6241ZM70.6318 12.5317H69.5565V14.4853H68.5396V9.50635H70.9817C71.3316 9.51364 71.5977 9.55373 71.7872 9.63392C71.9767 9.71411 72.1335 9.8271 72.2647 9.98019C72.374 10.1078 72.4579 10.2463 72.5198 10.3994C72.5818 10.5524 72.6146 10.7274 72.6146 10.9242C72.6146 11.1612 72.5563 11.3944 72.436 11.6204C72.3157 11.85 72.1189 12.0104 71.8455 12.1052C72.0751 12.1963 72.2392 12.3275 72.3339 12.4988C72.4287 12.6702 72.4761 12.9289 72.4761 13.2789V13.6142C72.4761 13.8402 72.4834 13.9969 72.5016 14.0771C72.5271 14.2047 72.5927 14.2994 72.6911 14.3614V14.4853H71.5466C71.5138 14.376 71.492 14.2849 71.481 14.2193C71.4555 14.0808 71.4409 13.9386 71.4373 13.7892L71.43 13.3262C71.4263 13.0091 71.368 12.7977 71.255 12.692C71.142 12.5863 70.9343 12.5317 70.6281 12.5317" fill="white"/>
<path d="M78.7495 13.6101L78.2465 13.129L78.7823 12.5676L79.2853 13.0488C79.3655 12.8848 79.4202 12.7462 79.4493 12.6223C79.5004 12.4401 79.5222 12.2287 79.5222 11.9844C79.5222 11.4268 79.4092 10.993 79.1796 10.6905C78.95 10.3843 78.6183 10.2312 78.1772 10.2312C77.7654 10.2312 77.4373 10.377 77.1895 10.6723C76.9453 10.9639 76.8213 11.4013 76.8213 11.9844C76.8213 12.6661 76.9963 13.1545 77.3462 13.4497C77.5722 13.6393 77.8456 13.7377 78.1627 13.7377C78.283 13.7377 78.3959 13.7231 78.5089 13.6939C78.5709 13.6793 78.6474 13.6502 78.7422 13.6101M78.9718 14.5104C78.7495 14.5833 78.4834 14.6234 78.17 14.6234C77.5212 14.6234 76.9854 14.4302 76.5625 14.0438C76.0486 13.5773 75.7935 12.892 75.7935 11.9917C75.7935 11.0914 76.0559 10.3953 76.5844 9.9287C77.0145 9.54598 77.5503 9.35645 78.1882 9.35645C78.826 9.35645 79.3728 9.55692 79.8102 9.96151C80.3132 10.4281 80.5683 11.0805 80.5683 11.9188C80.5683 12.3635 80.5137 12.7353 80.4043 13.0342C80.3168 13.3221 80.1856 13.5591 80.0143 13.7486L80.5902 14.2844L80.0471 14.853L79.4457 14.2844C79.2634 14.3938 79.1067 14.4739 78.9718 14.5177" fill="white"/>
<path d="M84.5347 12.5645V9.50635H85.5917V12.5645C85.5917 13.093 85.5079 13.5049 85.3439 13.8001C85.0377 14.3395 84.4545 14.6093 83.5907 14.6093C82.7268 14.6093 82.1436 14.3395 81.8338 13.8001C81.6698 13.5049 81.5859 13.093 81.5859 12.5645V9.50635H82.643V12.5645C82.643 12.9071 82.6831 13.1549 82.7633 13.3153C82.8908 13.596 83.1642 13.7345 83.587 13.7345C84.0098 13.7345 84.2832 13.596 84.4071 13.3153C84.4873 13.1586 84.5274 12.9071 84.5274 12.5645" fill="white"/>
<path d="M89.2025 12.6006L88.5829 10.6433L87.9414 12.6006H89.2025ZM89.4905 13.4572H87.6571L87.3108 14.4814H86.2246L87.9997 9.50244H89.1734L90.9375 14.4814H89.8076L89.4868 13.4572H89.4905Z" fill="white"/>
<path d="M91.7783 9.50244H92.8171V13.5884H95.2848V14.4814H91.7783V9.50244Z" fill="white"/>
<path d="M97.165 9.50244H96.1299V14.4814H97.165V9.50244Z" fill="white"/>
<path d="M101.993 9.50244V10.3845H100.506V14.4814H99.4558V10.3845H97.9614V9.50244H101.993Z" fill="white"/>
<path d="M107.055 9.50244L105.393 12.6116V14.4814H104.351V12.6116L102.63 9.50244H103.855L104.887 11.6712L105.878 9.50244H107.055Z" fill="white"/>
<path d="M58.562 18.1372H59.6045V22.2195H62.0684V23.1162H58.562V18.1372Z" fill="white"/>
<path d="M66.4003 20.9402H63.9837V22.2195H66.7393V23.1162H62.9668V18.1372H66.619V19.0193H63.9837V20.0763H66.4003V20.9402Z" fill="white"/>
<path d="M70.4723 21.2354L69.8527 19.2781L69.2112 21.2354H70.4723ZM70.7639 22.092H68.9305L68.5842 23.1162H67.498L69.2731 18.1372H70.4468L72.211 23.1162H71.081L70.7603 22.092H70.7639Z" fill="white"/>
<path d="M75.9677 19.4056C75.8073 19.1359 75.4902 19.0011 75.02 19.0011H74.0614V22.2487H75.02C75.5121 22.2487 75.8547 22.0081 76.0479 21.5234C76.1536 21.2573 76.2083 20.9402 76.2083 20.5757C76.2083 20.069 76.1281 19.679 75.9714 19.4056M75.195 23.1162H73.0518V18.1372H75.195C75.5048 18.1409 75.76 18.1773 75.9641 18.2466C76.314 18.3632 76.5946 18.571 76.8133 18.8771C76.9847 19.125 77.1049 19.3947 77.1669 19.6827C77.2289 19.9706 77.2617 20.244 77.2617 20.5064C77.2617 21.1698 77.1305 21.7275 76.8644 22.1904C76.5035 22.81 75.9495 23.1198 75.195 23.1198" fill="white"/>
<path d="M81.7309 20.9402H79.3143V22.2195H82.0699V23.1162H78.2974V18.1372H81.9496V19.0193H79.3143V20.0763H81.7309V20.9402Z" fill="white"/>
<path d="M85.8187 20.2586C86.0265 20.1638 86.1285 19.9779 86.1285 19.6972C86.1285 19.3947 86.0301 19.1942 85.8296 19.0885C85.7166 19.0302 85.549 19.0011 85.323 19.0011H84.1129V20.3388H85.2902C85.5235 20.3388 85.6984 20.3132 85.8187 20.2586ZM85.1845 21.1625H84.1092V23.1162H83.0923V18.1372H85.5344C85.8843 18.1445 86.1504 18.1846 86.3399 18.2648C86.5295 18.345 86.6862 18.458 86.8174 18.6111C86.9268 18.7386 87.0106 18.8771 87.0726 19.0302C87.1345 19.1833 87.1673 19.3583 87.1673 19.5551C87.1673 19.792 87.109 20.0253 86.9887 20.2513C86.8684 20.4809 86.6716 20.6413 86.3982 20.7361C86.6279 20.8272 86.7919 20.9584 86.8867 21.1297C86.9814 21.301 87.0288 21.5598 87.0288 21.9097V22.2451C87.0288 22.471 87.0361 22.6278 87.0543 22.708C87.0799 22.8355 87.1455 22.9303 87.2439 22.9923V23.1162H86.0994C86.0666 23.0069 86.0447 22.9157 86.0338 22.8501C86.0082 22.7116 85.9937 22.5695 85.99 22.42L85.9827 21.9571C85.9791 21.64 85.9208 21.4286 85.8078 21.3229C85.6948 21.2172 85.487 21.1625 85.1808 21.1625" fill="white"/>
<path d="M90.096 22.3943C90.3403 22.3943 90.5407 22.3688 90.6938 22.3141C90.9854 22.2121 91.1312 22.0189 91.1312 21.7382C91.1312 21.5742 91.0583 21.4466 90.9162 21.3555C90.774 21.268 90.5444 21.1915 90.2382 21.1222L89.7097 21.0019C89.1921 20.8853 88.8349 20.7577 88.6344 20.6192C88.2991 20.3896 88.1314 20.0324 88.1314 19.544C88.1314 19.0993 88.2918 18.7275 88.6162 18.4322C88.9406 18.137 89.4181 17.9912 90.045 17.9912C90.5699 17.9912 91.0182 18.1297 91.3864 18.4067C91.7581 18.6838 91.9513 19.0883 91.9696 19.6169H90.9708C90.9526 19.318 90.8214 19.1066 90.5772 18.979C90.4132 18.8952 90.2127 18.8551 89.9721 18.8551C89.706 18.8551 89.491 18.9097 89.3306 19.0191C89.1702 19.1284 89.09 19.2779 89.09 19.4711C89.09 19.6497 89.1702 19.7809 89.327 19.8684C89.429 19.9267 89.6441 19.9959 89.9758 20.0761L90.8323 20.2839C91.2078 20.375 91.4921 20.4953 91.6816 20.6447C91.9805 20.878 92.1263 21.217 92.1263 21.6617C92.1263 22.1064 91.9513 22.4927 91.6051 22.7952C91.2588 23.0941 90.7667 23.2472 90.1325 23.2472C89.4983 23.2472 88.9734 23.0978 88.6016 22.8025C88.2298 22.5073 88.0439 22.0991 88.0439 21.5815H89.0354C89.0682 21.8075 89.1301 21.9788 89.2213 22.0918C89.3889 22.2959 89.6805 22.3979 90.0888 22.3979" fill="white"/>
<path d="M96.1198 23.1162V20.8928H94.1734V23.1162H93.1455V18.1372H94.1734V20.0362H96.1198V18.1372H97.1549V23.1162H96.1198Z" fill="white"/>
<path d="M99.3872 18.1372H98.3521V23.1162H99.3872V18.1372Z" fill="white"/>
<path d="M103.198 20.2877C103.332 20.1674 103.402 19.9779 103.402 19.7191C103.402 19.4603 103.332 19.2744 103.198 19.1651C103.063 19.0557 102.87 19.0011 102.625 19.0011H101.656V20.4663H102.625C102.87 20.4663 103.063 20.408 103.201 20.2877M102.713 21.3265H101.656V23.1162H100.621V18.1372H102.789C103.289 18.1372 103.686 18.2648 103.985 18.5236C104.284 18.7787 104.43 19.176 104.43 19.7155C104.43 20.3023 104.28 20.7178 103.985 20.962C103.686 21.2062 103.263 21.3265 102.713 21.3265Z" fill="white"/>
<path d="M19.902 4.08963C15.652 4.08963 12.1966 7.54503 12.1966 11.795C12.1966 16.045 15.652 19.5005 19.902 19.5005C24.152 19.5005 27.6074 16.045 27.6074 11.795C27.6074 7.54503 24.152 4.08963 19.902 4.08963ZM19.902 23.5864C13.3994 23.5864 8.10693 18.2976 8.10693 11.7914C8.10693 5.28517 13.3957 0 19.902 0C26.4082 0 31.697 5.29246 31.697 11.795C31.697 18.2976 26.4046 23.5901 19.902 23.5901" fill="#F05152"/>
<path d="M31.6934 11.795C31.6934 5.29246 26.4046 0 19.902 0C13.3994 0 8.10693 5.29246 8.10693 11.795H12.1966C12.1966 7.54868 15.652 4.08963 19.902 4.08963C24.152 4.08963 27.6074 7.54503 27.6074 11.795C27.6074 14.1278 26.5613 16.2164 24.9211 17.6306C24.3597 16.9271 23.9078 16.1216 23.6162 15.2322L19.7343 16.5116C20.0769 17.5504 20.5617 18.5127 21.1485 19.3911C20.744 19.4567 20.3284 19.5005 19.9056 19.5005V23.5901C21.5203 23.5901 23.0621 23.262 24.4654 22.6716C26.3426 23.9035 28.5733 24.607 30.9352 24.607V20.5174C30.0203 20.5174 29.1383 20.3534 28.3109 20.0545C30.4031 17.9258 31.697 15.0099 31.697 11.795" fill="#F05152"/>
</svg>
